<svg width="1em" height="1em" viewBox="0 0 75 91" fill="none" class="text-4xl sm:text-5xl" xmlns="http://www.w3.org/2000/svg"><mask id="path-1-inside-1" fill="white"><path fill-rule="evenodd" clip-rule="evenodd" d="M50 82.8662C64.5649 77.7182 75 63.8277 75 47.5C75 26.7893 58.2107 10 37.5 10C16.7893 10 0 26.7893 0 47.5C0 63.4516 9.95982 77.0769 24 82.4965V88.5806C24 89.9168 25.0832 91 26.4194 91H47.5806C48.9168 91 50 89.9168 50 88.5806V82.8662Z"></path></mask><path d="M50 82.8662L49.5969 81.7256L48.7903 82.0107V82.8662H50ZM24 82.4965H25.2097V81.6668L24.4356 81.368L24 82.4965ZM73.7903 47.5C73.7903 63.2991 63.6936 76.7432 49.5969 81.7256L50.4031 84.0067C65.4362 78.6933 76.2097 64.3563 76.2097 47.5H73.7903ZM37.5 11.2097C57.5426 11.2097 73.7903 27.4574 73.7903 47.5H76.2097C76.2097 26.1212 58.8788 8.79032 37.5 8.79032V11.2097ZM1.20968 47.5C1.20968 27.4574 17.4574 11.2097 37.5 11.2097V8.79032C16.1212 8.79032 -1.20968 26.1212 -1.20968 47.5H1.20968ZM24.4356 81.368C10.8463 76.1224 1.20968 62.9351 1.20968 47.5H-1.20968C-1.20968 63.968 9.07332 78.0314 23.5644 83.6251L24.4356 81.368ZM25.2097 88.5806V82.4965H22.7903V88.5806H25.2097ZM26.4194 89.7903C25.7513 89.7903 25.2097 89.2487 25.2097 88.5806H22.7903C22.7903 90.5849 24.4151 92.2097 26.4194 92.2097V89.7903ZM47.5806 89.7903H26.4194V92.2097H47.5806V89.7903ZM48.7903 88.5806C48.7903 89.2487 48.2487 89.7903 47.5806 89.7903V92.2097C49.5849 92.2097 51.2097 90.5849 51.2097 88.5806H48.7903ZM48.7903 82.8662V88.5806H51.2097V82.8662H48.7903Z" fill="black" mask="url(#path-1-inside-1)"></path><mask id="path-3-inside-2" fill="white"><path fill-rule="evenodd" clip-rule="evenodd" d="M45 79.2576C59.6426 75.7713 70.5323 62.6049 70.5323 46.8952C70.5323 28.5228 55.6385 13.629 37.2661 13.629C18.8938 13.629 4 28.5228 4 46.8952C4 61.685 13.6516 74.2206 27 78.547V84.5806C27 85.9168 28.0832 87 29.4194 87H42.5806C43.9168 87 45 85.9168 45 84.5806V79.2576Z"></path></mask><path d="M45 79.2576L44.7198 78.0808L43.7903 78.3021V79.2576H45ZM27 78.547H28.2097V77.6674L27.373 77.3963L27 78.547ZM69.3226 46.8952C69.3226 62.0321 58.83 74.7213 44.7198 78.0808L45.2802 80.4344C60.4553 76.8213 71.7419 63.1778 71.7419 46.8952H69.3226ZM37.2661 14.8387C54.9704 14.8387 69.3226 29.1909 69.3226 46.8952H71.7419C71.7419 27.8547 56.3066 12.4194 37.2661 12.4194V14.8387ZM5.20968 46.8952C5.20968 29.1909 19.5618 14.8387 37.2661 14.8387V12.4194C18.2257 12.4194 2.79032 27.8547 2.79032 46.8952H5.20968ZM27.373 77.3963C14.5088 73.2268 5.20968 61.1453 5.20968 46.8952H2.79032C2.79032 62.2247 12.7945 75.2144 26.627 79.6977L27.373 77.3963ZM28.2097 84.5806V78.547H25.7903V84.5806H28.2097ZM29.4194 85.7903C28.7513 85.7903 28.2097 85.2487 28.2097 84.5806H25.7903C25.7903 86.5849 27.4151 88.2097 29.4194 88.2097V85.7903ZM42.5806 85.7903H29.4194V88.2097H42.5806V85.7903ZM43.7903 84.5806C43.7903 85.2487 43.2487 85.7903 42.5806 85.7903V88.2097C44.5849 88.2097 46.2097 86.5849 46.2097 84.5806H43.7903ZM43.7903 79.2576V84.5806H46.2097V79.2576H43.7903Z" fill="black" mask="url(#path-3-inside-2)"></path><circle cx="37.5887" cy="48.1048" r="22.9839" stroke="black" stroke-width="1.20968"></circle><circle cx="27.5" cy="37.5" r="8" stroke="black"></circle><circle cx="47.5" cy="37.5" r="8" stroke="black"></circle><circle cx="51.5" cy="55.5" r="7" stroke="black"></circle><circle cx="23.5" cy="55.5" r="7" stroke="black"></circle><circle cx="37.5" cy="62.5" r="8" stroke="black"></circle><circle cx="27.5" cy="37.5" r="3" stroke="black"></circle><circle cx="47.5" cy="37.5" r="3" stroke="black"></circle><circle cx="37.5" cy="62.5" r="3" stroke="black"></circle><circle cx="51.5" cy="55.5" r="1.5" fill="black"></circle><circle cx="23.5" cy="55.5" r="1.5" fill="black"></circle><rect x="35" y="37" width="5" height="2" fill="black"></rect><rect x="51" y="45" width="3.76511" height="1.35052" transform="rotate(70.2674 51 45)" fill="black"></rect><rect width="3.76511" height="1.35052" transform="matrix(-0.337631 0.941279 0.941279 0.337631 24.2712 45)" fill="black"></rect><path d="M25 12.5L28 1H30V11" stroke="black"></path><path d="M30 4H37.5" stroke="black"></path><path d="M49.5 12.5L46.5 1H44.5V11" stroke="black"></path><path d="M44.5 4H37" stroke="black"></path></svg>