<svg width="12" height="12" viewBox="0 0 12 12" fill="none" xmlns="http://www.w3.org/2000/svg">
<g id="elements">
<path id="Vector" fill-rule="evenodd" clip-rule="evenodd" d="M4.80033 0.792319C5.24908 0.540495 5.66475 0.391846 6.12972 0.391846C6.59468 0.391846 7.01035 0.540495 7.4591 0.792318C7.89391 1.03632 8.39215 1.39657 9.01866 1.84957L9.01867 1.84957L9.82882 2.43534C10.3316 2.79887 10.7332 3.08922 11.0361 3.35797C11.3488 3.63545 11.5828 3.91208 11.7312 4.26004C11.88 4.60876 11.9159 4.96619 11.896 5.3783C11.8767 5.776 11.803 6.25583 11.711 6.85416L11.711 6.85417L11.5418 7.95561L11.5418 7.95563C11.4111 8.80591 11.3071 9.48296 11.1542 10.0104C10.9962 10.5559 10.7735 10.9889 10.3756 11.3199C9.97928 11.6495 9.5072 11.7963 8.93052 11.8664C8.73427 11.8902 8.52006 11.9057 8.28622 11.9158L8.4104 9.68177C8.50224 8.36016 7.45485 7.2369 6.12942 7.2369C4.80399 7.2369 3.7566 8.36016 3.84844 9.68177L3.97262 11.9157C3.73901 11.9057 3.525 11.8902 3.32891 11.8664C2.75224 11.7963 2.28015 11.6495 1.88385 11.3199C1.4859 10.9889 1.26326 10.5559 1.10521 10.0104C0.952359 9.48296 0.848319 8.80589 0.717661 7.9556L0.54841 6.85423L0.548409 6.85422C0.456451 6.25586 0.382707 5.77602 0.363452 5.3783C0.3435 4.96619 0.379472 4.60876 0.528208 4.26004C0.67662 3.91208 0.910593 3.63545 1.22334 3.35797C1.52623 3.08922 1.92782 2.79887 2.43061 2.43534L2.43062 2.43533L3.24077 1.84957C3.86729 1.39656 4.36552 1.03632 4.80033 0.792319ZM5.04904 11.9341C5.19119 11.9345 5.33859 11.9345 5.49143 11.9345H6.768C6.92063 11.9345 7.06783 11.9345 7.2098 11.9341L7.33877 9.61399L7.33907 9.60977C7.38922 8.90776 6.83322 8.31063 6.12942 8.31063C5.42562 8.31063 4.86962 8.90776 4.91976 9.60977L4.92007 9.61399L5.04904 11.9341Z" fill="white"/>
</g>
</svg>
