<svg width="28" height="27" viewBox="0 0 28 27" fill="none" xmlns="http://www.w3.org/2000/svg">
<g id="Group 33708">
<circle id="Ellipse 14" cx="14.1288" cy="13.6352" r="13.3646" fill="#777777"/>
<g id="Black">
<path id="Vector" d="M12.2857 7.0178C11.6246 7.12326 11.0973 7.54508 10.8215 8.19403C10.7485 8.36843 10.7444 8.55095 10.7241 12.4933L10.7039 16.6101H10.1888C9.6777 16.6101 9.66959 16.6101 9.56008 16.4966L9.44652 16.387L9.42624 13.4343L9.40596 10.4856L9.29239 10.295C9.15449 10.0598 8.89896 9.89753 8.60288 9.86102L8.39197 9.83669L8.37169 9.569C8.35546 9.37431 8.32707 9.27291 8.27029 9.20802C8.104 9.0255 8.01071 9.00522 7.2563 9.00522H6.54651V9.18774V9.37025H6.16119H5.77588V9.57305V9.77585H6.18147H6.58707V10.1206V10.4654H6.18147H5.77588V10.6682V10.871H6.16119H6.54651V11.0575V11.24L7.31714 11.2279L8.08777 11.2157L8.21756 11.0819C8.33518 10.9683 8.35546 10.9196 8.37169 10.6763C8.39602 10.3721 8.44064 10.3356 8.65966 10.4289C8.90707 10.5303 8.89896 10.437 8.89896 13.5357C8.89896 15.4055 8.91519 16.4195 8.94358 16.5209C8.9963 16.7115 9.21533 16.963 9.41812 17.0603C9.53575 17.1212 9.69393 17.1415 10.136 17.1577L10.7039 17.178V17.9608V18.7395H14.4881H18.2682L18.2601 13.556L18.2479 8.37654L18.1019 8.07235C17.8748 7.60186 17.5179 7.27333 17.0149 7.08675C16.7959 7.00563 16.7148 7.00158 14.6381 6.99347C13.4579 6.98941 12.3992 6.99752 12.2857 7.0178ZM16.4471 8.32382C16.5485 8.38466 16.6864 8.51039 16.7513 8.60368L16.8689 8.77403L16.8811 10.7371L16.8932 12.6961H14.4962H12.1032V10.7777V8.85515L12.1965 8.67669C12.3019 8.47794 12.5453 8.28326 12.7562 8.23459C12.8332 8.21431 13.6525 8.20214 14.5773 8.20619L16.2605 8.21431L16.4471 8.32382ZM15.1532 13.9981C15.8468 14.2293 16.3335 14.8052 16.4471 15.5272C16.6134 16.5412 15.8752 17.5268 14.8328 17.685C13.9365 17.8229 13.0239 17.2429 12.7521 16.3587C12.6061 15.8882 12.6669 15.2879 12.9022 14.8863C13.0482 14.6389 13.3808 14.2942 13.5958 14.1684C14.0379 13.9089 14.6787 13.8359 15.1532 13.9981Z" fill="white"/>
<path id="Vector_2" d="M14.3181 14.5899C14.241 14.8373 13.9287 15.9284 13.9287 15.9568C13.9287 15.9689 14.0463 15.9811 14.1883 15.9811H14.4479L14.2491 16.6138C14.1396 16.9586 14.0504 17.2547 14.0504 17.2668C14.0504 17.2831 14.3059 16.9058 14.6182 16.4313C14.9305 15.9568 15.1861 15.5633 15.1861 15.5512C15.1861 15.5431 15.0563 15.5349 14.9021 15.5349H14.6142L14.9508 15.0482C15.1374 14.7805 15.3118 14.525 15.3442 14.4804C15.397 14.3993 15.3889 14.3993 14.89 14.3993H14.383L14.3181 14.5899Z" fill="white"/>
<path id="Vector_3" d="M10.4445 19.3966C10.3228 19.425 10.2173 19.4899 10.0956 19.6116C9.87663 19.8306 9.8239 20.0456 9.84012 20.6905L9.85229 21.1528H14.4964H19.1404L19.1364 20.5647C19.1364 20.0496 19.1242 19.9563 19.0512 19.8144C18.9538 19.6278 18.8768 19.5507 18.674 19.4453C18.5401 19.3723 18.3576 19.3682 14.5775 19.3601C12.1033 19.356 10.558 19.3723 10.4445 19.3966Z" fill="white"/>
</g>
</g>
</svg>
