<svg width="137" height="123" viewBox="0 0 137 123" fill="none" xmlns="http://www.w3.org/2000/svg">
<g clip-path="url(#clip0_1221_24274)">
<path d="M135.788 100.996C134.542 108.664 128.927 114.601 122.95 119.79C122.115 120.514 121.279 121.225 120.44 121.921C120.434 121.925 120.428 121.931 120.423 121.935C120.382 121.968 120.342 122.001 120.304 122.035C120.131 122.178 119.958 122.322 119.786 122.464L119.894 122.497L120.23 122.6C120.115 122.569 120.001 122.538 119.886 122.507C119.851 122.497 119.816 122.489 119.781 122.479C115.818 121.409 111.774 120.234 108.535 117.726C105.173 115.121 102.858 110.68 104.018 106.588C104.17 106.052 104.382 105.535 104.649 105.046C104.759 104.841 104.879 104.643 105.006 104.448C105.772 103.245 106.845 102.267 108.114 101.616C109.383 100.965 110.802 100.663 112.226 100.742C113.651 100.822 115.028 101.279 116.217 102.067C117.406 102.855 118.364 103.945 118.992 105.226C118.935 100.718 114.817 97.4304 110.955 95.1036C107.091 92.7785 102.716 90.2664 101.501 85.9222C100.824 83.5053 101.394 81.0159 102.724 78.9126C102.765 78.8486 102.806 78.7847 102.849 78.7221C104.48 76.2626 106.979 74.5089 109.846 73.8113C115.197 72.5974 120.805 74.8332 125.193 78.1277C132.257 83.4279 137.205 92.2778 135.788 100.996Z" fill="#F2F2F2"/>
<path d="M124.439 92.5253C125.674 94.0182 126.683 95.6832 127.437 97.4676C128.085 99.0655 128.491 100.751 128.64 102.469C128.965 105.998 128.296 109.565 126.961 112.831C125.922 115.31 124.574 117.648 122.949 119.79C122.115 120.514 121.278 121.225 120.44 121.921C120.434 121.924 120.428 121.931 120.422 121.934C120.382 121.968 120.341 122.001 120.304 122.034C120.131 122.178 119.958 122.321 119.786 122.463L119.894 122.497L120.229 122.6C120.114 122.568 120.001 122.538 119.885 122.507C119.851 122.497 119.815 122.489 119.781 122.479C119.786 119.661 119.116 116.882 117.826 114.376C116.536 111.87 114.665 109.71 112.368 108.076C110.07 106.472 107.425 105.434 104.649 105.046C104.758 104.841 104.879 104.643 105.006 104.448C106.08 104.615 107.137 104.876 108.165 105.229C111.839 106.479 115.012 108.88 117.216 112.075C119.197 114.978 120.309 118.386 120.421 121.899C120.56 121.74 120.698 121.577 120.832 121.417C123.383 118.394 125.565 115.014 126.865 111.259C128.002 108.074 128.339 104.659 127.846 101.314C127.265 97.6722 125.4 94.458 122.935 91.7609C120.294 88.8747 117.124 86.4213 113.806 84.3646C110.407 82.2535 106.762 80.5664 102.954 79.3406C102.868 79.3124 102.796 79.2522 102.753 79.1725C102.71 79.0928 102.7 78.9997 102.723 78.9124C102.739 78.8349 102.784 78.7664 102.849 78.7219C102.883 78.7022 102.921 78.6903 102.96 78.6873C102.999 78.6843 103.039 78.6901 103.075 78.7044C103.546 78.8561 104.013 79.0109 104.478 79.1751C108.352 80.5432 112.04 82.3873 115.459 84.6649C118.761 86.8587 121.931 89.4373 124.439 92.5253Z" fill="white"/>
<path d="M57.0721 75.0158C56.6911 75.0152 56.3247 74.8699 56.0468 74.6093C55.769 74.3487 55.6006 73.9922 55.5757 73.6121L55.3528 70.2092C55.3268 69.8117 55.4597 69.4202 55.7224 69.1207C55.985 68.8212 56.3558 68.6384 56.7533 68.6123L83.4139 66.8663C83.8342 66.8386 84.256 66.8939 84.6549 67.0292C85.0539 67.1645 85.4223 67.3771 85.7391 67.6548C86.0559 67.9325 86.3149 68.2699 86.5012 68.6478C86.6876 69.0256 86.7977 69.4364 86.8252 69.8568C86.8527 70.2772 86.7972 70.6989 86.6617 71.0978C86.5262 71.4967 86.3134 71.865 86.0355 72.1817C85.7577 72.4983 85.4201 72.7571 85.0422 72.9433C84.6643 73.1295 84.2534 73.2393 83.833 73.2667L57.1725 75.0125C57.1389 75.0147 57.1054 75.0158 57.0721 75.0158Z" fill="#4DE0CC"/>
<path d="M62.3279 75.4547C61.9395 75.454 61.5665 75.3031 61.2869 75.0336C61.0072 74.7641 60.8427 74.3968 60.8278 74.0088L60.6378 68.9261C60.6304 68.729 60.6619 68.5324 60.7306 68.3475C60.7992 68.1626 60.9035 67.993 61.0377 67.8484C61.1719 67.7039 61.3332 67.5871 61.5125 67.5049C61.6917 67.4227 61.8854 67.3766 62.0825 67.3693L84.0062 66.5499C84.4043 66.535 84.7919 66.6789 85.0839 66.9498C85.3759 67.2208 85.5483 67.5966 85.5631 67.9946L85.7531 73.0773C85.7605 73.2744 85.729 73.471 85.6603 73.6559C85.5917 73.8408 85.4874 74.0104 85.3532 74.155C85.219 74.2995 85.0577 74.4163 84.8784 74.4985C84.6992 74.5807 84.5055 74.6268 84.3084 74.6341L62.3847 75.4535C62.3657 75.4543 62.3467 75.4547 62.3279 75.4547Z" fill="#2F2E41"/>
<path d="M88.0176 122.307H84.6073C84.2091 122.307 83.8274 122.148 83.5458 121.867C83.2643 121.585 83.1059 121.204 83.1055 120.805V92.3827C83.1059 91.9845 83.2643 91.6028 83.5458 91.3212C83.8274 91.0397 84.2091 90.8813 84.6073 90.8809H88.0176C88.4158 90.8813 88.7975 91.0397 89.079 91.3212C89.3606 91.6028 89.519 91.9845 89.5194 92.3827V120.805C89.519 121.204 89.3606 121.585 89.079 121.867C88.7975 122.148 88.4158 122.307 88.0176 122.307Z" fill="#2F2E41"/>
<path d="M72.8812 107.283L69.9649 105.516C69.6246 105.309 69.3803 104.976 69.2855 104.589C69.1906 104.202 69.2531 103.794 69.4591 103.453L84.192 79.1465C84.3988 78.8063 84.7321 78.5619 85.1188 78.4671C85.5055 78.3723 85.914 78.4347 86.2548 78.6407L89.1711 80.4084C89.5114 80.6152 89.7557 80.9485 89.8506 81.3352C89.9454 81.7219 89.883 82.1305 89.6769 82.4712L74.944 106.777C74.7373 107.118 74.404 107.362 74.0172 107.457C73.6305 107.552 73.222 107.489 72.8812 107.283Z" fill="#2F2E41"/>
<path d="M82.8403 61.2177C89.3483 61.2177 94.624 55.942 94.624 49.4341C94.624 42.9261 89.3483 37.6504 82.8403 37.6504C76.3324 37.6504 71.0566 42.9261 71.0566 49.4341C71.0566 55.942 76.3324 61.2177 82.8403 61.2177Z" fill="#4DE0CC"/>
<path d="M76.4609 53.4577C76.0819 53.3332 75.7339 53.1289 75.4404 52.8587C75.2459 52.6657 75.096 52.4326 75.0011 52.1756C74.9062 51.9186 74.8687 51.644 74.8911 51.3709C74.9034 51.1764 74.9606 50.9874 75.0581 50.8186C75.1556 50.6498 75.2908 50.5058 75.4531 50.398C75.8745 50.1276 76.4381 50.1268 77.0119 50.3797L76.9902 45.7795L77.4523 45.7773L77.4778 51.1853L77.1218 50.9614C76.7089 50.7021 76.1193 50.5196 75.7027 50.7869C75.5997 50.8576 75.5144 50.951 75.4535 51.0599C75.3925 51.1689 75.3575 51.2904 75.3511 51.4151C75.3355 51.6185 75.3639 51.8229 75.4344 52.0143C75.5049 52.2057 75.6158 52.3797 75.7596 52.5244C76.2698 53.0118 77.0143 53.1642 77.8632 53.3005L77.79 53.7567C77.3389 53.6969 76.8941 53.5969 76.4609 53.4577Z" fill="#2F2E41"/>
<path d="M72.2265 45.5478L72.166 46.0059L74.6334 46.3317L74.6939 45.8737L72.2265 45.5478Z" fill="#2F2E41"/>
<path d="M80.0156 46.5761L79.9551 47.0342L82.4225 47.36L82.483 46.902L80.0156 46.5761Z" fill="#2F2E41"/>
<path d="M92.6802 100.008H72.8097C72.289 100.008 71.7898 99.8008 71.4216 99.4326C71.0534 99.0644 70.8463 98.5652 70.8457 98.0445L75.0056 66.1444C75.0089 65.6261 75.2172 65.1301 75.5851 64.7649C75.9529 64.3997 76.4503 64.1949 76.9686 64.1953H84.0203C86.837 64.1985 89.5373 65.3188 91.529 67.3105C93.5206 69.3021 94.6409 72.0025 94.6441 74.8191V98.0445C94.6435 98.5652 94.4364 99.0644 94.0683 99.4326C93.7001 99.8008 93.2009 100.008 92.6802 100.008Z" fill="#2F2E41"/>
<path d="M87.6762 98.3079C87.5554 98.5715 87.3609 98.7945 87.1163 98.9502C86.8717 99.1058 86.5873 99.1874 86.2973 99.1852L82.8872 99.1556C82.69 99.1539 82.495 99.1134 82.3135 99.0363C82.1319 98.9593 81.9673 98.8472 81.8291 98.7066C81.6909 98.5659 81.5817 98.3994 81.5078 98.2165C81.4339 98.0337 81.3968 97.838 81.3985 97.6408L81.6301 70.9242C81.6338 70.5031 81.7204 70.0868 81.8849 69.6991C82.0494 69.3115 82.2887 68.96 82.5891 68.6648C82.8894 68.3696 83.245 68.1365 83.6354 67.9787C84.0259 67.8209 84.4436 67.7416 84.8647 67.7452C85.2858 67.7489 85.7021 67.8354 86.0898 68C86.4774 68.1645 86.8289 68.4038 87.1241 68.7041C87.4193 69.0045 87.6524 69.3601 87.8102 69.7505C87.968 70.141 88.0473 70.5587 88.0437 70.9798L87.8121 97.6964C87.8106 97.9076 87.7642 98.116 87.6762 98.3079Z" fill="#4DE0CC"/>
<path d="M89.1786 91.1756C89.0578 91.4392 88.8634 91.6622 88.6187 91.8179C88.3741 91.9735 88.0897 92.0551 87.7998 92.0529L81.9751 92.0024C81.5769 91.9985 81.1966 91.8368 80.9175 91.5528C80.6384 91.2688 80.4834 90.8857 80.4864 90.4876L80.6766 68.5494C80.6783 68.3522 80.7188 68.1572 80.7959 67.9756C80.8729 67.7941 80.985 67.6295 81.1257 67.4912C81.2663 67.353 81.4328 67.2438 81.6157 67.1699C81.7986 67.096 81.9942 67.0589 82.1914 67.0606L88.016 67.1111C88.2132 67.1128 88.4082 67.1533 88.5897 67.2304C88.7713 67.3074 88.9359 67.4195 89.0741 67.5601C89.2124 67.7008 89.3216 67.8673 89.3954 68.0502C89.4693 68.2331 89.5064 68.4287 89.5047 68.6259L89.3146 90.5641C89.3129 90.7753 89.2666 90.9837 89.1786 91.1756Z" fill="#2F2E41"/>
<path d="M83.0595 42.4459C81.4843 41.1423 79.3785 42.3752 77.5971 42.2002C75.8929 42.0328 74.5211 40.533 74.1473 38.919C73.7112 37.036 74.6565 35.1232 76.0805 33.917C77.6401 32.5959 79.734 32.1854 81.7295 32.3864C84.0166 32.6168 86.1236 33.6408 88.0206 34.8917C89.8509 36.0608 91.5398 37.4377 93.0536 38.9949C94.41 40.437 95.5689 42.1646 95.9658 44.1322C96.3266 45.9204 96.1149 47.9136 95.0831 49.4538C94.5354 50.2436 93.7934 50.8789 92.9287 51.2985C92.0276 51.7624 91.0634 52.1002 90.1917 52.6219C88.8738 53.4108 87.6089 55.0186 88.0576 56.6583C88.1539 57.0165 88.3368 57.3455 88.5902 57.6164C88.8947 57.9418 89.4242 57.4942 89.1189 57.168C88.5828 56.5951 88.5887 55.8174 88.8553 55.1162C89.1731 54.3257 89.75 53.6667 90.4914 53.2469C91.4038 52.702 92.416 52.3572 93.3523 51.8588C94.2489 51.4028 95.022 50.7369 95.6059 49.9178C96.7076 48.3238 97.0071 46.2709 96.7146 44.3826C96.3979 42.3392 95.3099 40.4975 93.9608 38.9625C92.4925 37.292 90.7013 35.8884 88.8747 34.6315C86.9148 33.2829 84.7564 32.1523 82.3845 31.7736C80.3284 31.4453 78.1116 31.7136 76.341 32.8643C74.6882 33.9384 73.4396 35.7558 73.3502 37.7618C73.3217 38.6743 73.5369 39.5779 73.9736 40.3796C74.4102 41.1813 75.0527 41.8521 75.8347 42.3231C76.6367 42.7826 77.5628 42.9786 78.4822 42.8837C79.4654 42.8019 80.4451 42.4817 81.4375 42.5466C81.8863 42.5653 82.3169 42.7298 82.6638 43.0152C83.008 43.3 83.4008 42.7283 83.0595 42.4459Z" fill="#2F2E41"/>
<path d="M69.2032 103.863C69.2074 103.837 69.2124 103.811 69.218 103.785C69.2591 103.592 69.3381 103.409 69.4503 103.247C69.5626 103.084 69.7059 102.946 69.8721 102.839L72.7378 100.991C73.0727 100.776 73.4793 100.702 73.8685 100.786C74.2577 100.87 74.5977 101.105 74.814 101.439L83.6543 115.145C83.8701 115.48 83.9442 115.887 83.8602 116.276C83.7762 116.665 83.541 117.005 83.2063 117.221L80.3404 119.07C80.0056 119.285 79.5989 119.359 79.2097 119.275C78.8205 119.191 78.4805 118.956 78.2643 118.622L69.4239 104.916C69.2219 104.604 69.1432 104.229 69.2032 103.863Z" fill="#2F2E41"/>
<path d="M58.4706 13.5336C58.2505 13.0108 57.8818 12.564 57.4104 12.2486C56.9389 11.9331 56.3852 11.7628 55.818 11.7588H2.87019C2.1091 11.7592 1.37929 12.0617 0.84111 12.5999C0.302934 13.1381 0.000408958 13.8679 0 14.629V81.6129C0.000408958 82.374 0.302934 83.1038 0.84111 83.6419C1.37929 84.1801 2.1091 84.4827 2.87019 84.4831H55.8199C56.5808 84.4821 57.3103 84.1793 57.8483 83.6413C58.3864 83.1032 58.6891 82.3738 58.6901 81.6129V14.629C58.6914 14.253 58.6174 13.8805 58.4725 13.5336H58.4706ZM58.0508 81.6129C58.0501 82.2048 57.8146 82.7723 57.3961 83.1909C56.9775 83.6095 56.41 83.845 55.818 83.8457H2.87019C2.27811 83.8456 1.7103 83.6104 1.29161 83.1917C0.872906 82.7731 0.637587 82.2053 0.637386 81.6133V14.6294C0.638192 14.0374 0.873694 13.47 1.29225 13.0514C1.71081 12.6329 2.27826 12.3974 2.87019 12.3966H55.8199C56.2658 12.3982 56.7011 12.5328 57.0702 12.7829C57.4394 13.0331 57.7256 13.3876 57.8924 13.8011C57.9249 13.8835 57.9529 13.9676 57.9764 14.053C58.027 14.2409 58.0527 14.4347 58.0527 14.6294L58.0508 81.6129Z" fill="#3F3D56"/>
<path d="M47.4218 27.5734H31.4732C31.1348 27.5734 30.8103 27.4389 30.571 27.1996C30.3317 26.9604 30.1973 26.6358 30.1973 26.2974C30.1973 25.959 30.3317 25.6345 30.571 25.3952C30.8103 25.1559 31.1348 25.0215 31.4732 25.0215H47.4218C47.7602 25.0215 48.0848 25.1559 48.3241 25.3952C48.5634 25.6345 48.6978 25.959 48.6978 26.2974C48.6978 26.6358 48.5634 26.9604 48.3241 27.1996C48.0848 27.4389 47.7602 27.5734 47.4218 27.5734Z" fill="#3F3D56"/>
<path d="M47.4235 34.2726H31.4749C31.3072 34.2728 31.1411 34.24 30.9861 34.1759C30.8311 34.1119 30.6902 34.018 30.5716 33.8995C30.4529 33.781 30.3588 33.6402 30.2946 33.4853C30.2303 33.3304 30.1973 33.1643 30.1973 32.9966C30.1973 32.8289 30.2303 32.6629 30.2946 32.508C30.3588 32.3531 30.4529 32.2123 30.5716 32.0938C30.6902 31.9753 30.8311 31.8814 30.9861 31.8173C31.1411 31.7533 31.3072 31.7205 31.4749 31.7207H47.4235C47.5912 31.7205 47.7573 31.7533 47.9123 31.8173C48.0673 31.8814 48.2082 31.9753 48.3269 32.0938C48.4455 32.2123 48.5397 32.3531 48.6039 32.508C48.6681 32.6629 48.7012 32.8289 48.7012 32.9966C48.7012 33.1643 48.6681 33.3304 48.6039 33.4853C48.5397 33.6402 48.4455 33.781 48.3269 33.8995C48.2082 34.018 48.0673 34.1119 47.9123 34.1759C47.7573 34.24 47.5912 34.2728 47.4235 34.2726Z" fill="#3F3D56"/>
<path d="M23.2899 38.0859H11.6347C11.2541 38.0855 10.8892 37.9341 10.6201 37.665C10.351 37.3959 10.1996 37.031 10.1992 36.6504V22.8964C10.1996 22.5158 10.351 22.1509 10.6201 21.8818C10.8892 21.6127 11.2541 21.4613 11.6347 21.4609H23.2899C23.6705 21.4613 24.0354 21.6127 24.3045 21.8818C24.5736 22.1509 24.725 22.5158 24.7254 22.8964V36.6504C24.725 37.031 24.5736 37.3959 24.3045 37.665C24.0354 37.9341 23.6705 38.0855 23.2899 38.0859Z" fill="#4DE0CC"/>
<path d="M47.31 47.9874H11.2662C10.9278 47.9874 10.6032 47.853 10.3639 47.6137C10.1247 47.3744 9.99023 47.0499 9.99023 46.7115C9.99023 46.3731 10.1247 46.0485 10.3639 45.8093C10.6032 45.57 10.9278 45.4355 11.2662 45.4355H47.31C47.6484 45.4355 47.9729 45.57 48.2122 45.8093C48.4515 46.0485 48.5859 46.3731 48.5859 46.7115C48.5859 47.0499 48.4515 47.3744 48.2122 47.6137C47.9729 47.853 47.6484 47.9874 47.31 47.9874Z" fill="#CCCCCC"/>
<path d="M47.31 54.6866H11.2662C10.9278 54.6866 10.6032 54.5522 10.3639 54.3129C10.1247 54.0736 9.99023 53.7491 9.99023 53.4107C9.99023 53.0723 10.1247 52.7478 10.3639 52.5085C10.6032 52.2692 10.9278 52.1348 11.2662 52.1348H47.31C47.6484 52.1348 47.9729 52.2692 48.2122 52.5085C48.4515 52.7478 48.5859 53.0723 48.5859 53.4107C48.5859 53.7491 48.4515 54.0736 48.2122 54.3129C47.9729 54.5522 47.6484 54.6866 47.31 54.6866Z" fill="#CCCCCC"/>
<path d="M47.3083 61.3849H11.2645C10.9264 61.3844 10.6023 61.2498 10.3633 61.0106C10.1244 60.7713 9.99023 60.4471 9.99023 60.1089C9.99023 59.7708 10.1244 59.4466 10.3633 59.2073C10.6023 58.9681 10.9264 58.8335 11.2645 58.833H47.3083C47.476 58.8328 47.6421 58.8656 47.7971 58.9296C47.9521 58.9937 48.093 59.0876 48.2116 59.2061C48.3303 59.3246 48.4244 59.4654 48.4887 59.6203C48.5529 59.7752 48.5859 59.9412 48.5859 60.1089C48.5859 60.2766 48.5529 60.4427 48.4887 60.5976C48.4244 60.7525 48.3303 60.8933 48.2116 61.0118C48.093 61.1303 47.9521 61.2242 47.7971 61.2882C47.6421 61.3523 47.476 61.3851 47.3083 61.3849Z" fill="#CCCCCC"/>
<path d="M47.31 68.0831H11.2662C10.9278 68.0831 10.6032 67.9487 10.3639 67.7094C10.1247 67.4701 9.99023 67.1456 9.99023 66.8072C9.99023 66.4688 10.1247 66.1442 10.3639 65.905C10.6032 65.6657 10.9278 65.5312 11.2662 65.5312H47.31C47.6484 65.5312 47.9729 65.6657 48.2122 65.905C48.4515 66.1442 48.5859 66.4688 48.5859 66.8072C48.5859 67.1456 48.4515 67.4701 48.2122 67.7094C47.9729 67.9487 47.6484 68.0831 47.31 68.0831Z" fill="#CCCCCC"/>
<path d="M47.31 74.7814H11.2662C10.9278 74.7814 10.6032 74.6469 10.3639 74.4077C10.1247 74.1684 9.99023 73.8438 9.99023 73.5054C9.99023 73.167 10.1247 72.8425 10.3639 72.6032C10.6032 72.3639 10.9278 72.2295 11.2662 72.2295H47.31C47.6484 72.2295 47.9729 72.3639 48.2122 72.6032C48.4515 72.8425 48.5859 73.167 48.5859 73.5054C48.5859 73.8438 48.4515 74.1684 48.2122 74.4077C47.9729 74.6469 47.6484 74.7814 47.31 74.7814Z" fill="#CCCCCC"/>
<path d="M58.8663 24.6272C65.6669 24.6272 71.1799 19.1142 71.1799 12.3136C71.1799 5.51298 65.6669 0 58.8663 0C52.0657 0 46.5527 5.51298 46.5527 12.3136C46.5527 19.1142 52.0657 24.6272 58.8663 24.6272Z" fill="#4DE0CC"/>
<path d="M57.6443 17.0106C57.3673 17.0111 57.0977 16.9214 56.876 16.7552L56.8623 16.7449L53.9684 14.5312C53.8344 14.4285 53.7219 14.3003 53.6374 14.1541C53.5529 14.0079 53.498 13.8465 53.4759 13.679C53.4538 13.5116 53.4649 13.3415 53.5085 13.1783C53.5522 13.0152 53.6275 12.8622 53.7303 12.7282C53.833 12.5942 53.9612 12.4817 54.1074 12.3972C54.2536 12.3127 54.415 12.2578 54.5825 12.2357C54.7499 12.2136 54.92 12.2247 55.0832 12.2683C55.2463 12.3119 55.3993 12.3873 55.5333 12.49L57.4077 13.9274L61.837 8.14887C61.9397 8.0149 62.0678 7.90247 62.214 7.818C62.3602 7.73353 62.5215 7.67868 62.6889 7.65658C62.8562 7.63447 63.0263 7.64554 63.1894 7.68917C63.3525 7.73279 63.5054 7.80811 63.6393 7.91082L63.6397 7.9111L63.6122 7.94927L63.6404 7.9111C63.9107 8.11882 64.0876 8.42529 64.1321 8.76324C64.1767 9.1012 64.0854 9.44304 63.8782 9.71374L58.6684 16.5075C58.5478 16.6641 58.3929 16.7907 58.2155 16.8777C58.0381 16.9647 57.843 17.0096 57.6455 17.0091L57.6443 17.0106Z" fill="white"/>
<path d="M136.773 122.703H52.9972C52.9368 122.703 52.8789 122.679 52.8362 122.637C52.7935 122.594 52.7695 122.536 52.7695 122.476C52.7695 122.415 52.7935 122.357 52.8362 122.315C52.8789 122.272 52.9368 122.248 52.9972 122.248H136.773C136.833 122.248 136.891 122.272 136.934 122.315C136.976 122.357 137 122.415 137 122.476C137 122.536 136.976 122.594 136.934 122.637C136.891 122.679 136.833 122.703 136.773 122.703Z" fill="#3F3D56"/>
</g>
<defs>
<clipPath id="clip0_1221_24274">
<rect width="137" height="122.704" fill="white"/>
</clipPath>
</defs>
</svg>
