<svg width="118" height="81" viewBox="0 0 118 81" fill="none" xmlns="http://www.w3.org/2000/svg">
<g id="Series=2, Chart type=Line wavy">
<g id="Slider">
<path id="Vector" opacity="0.1" d="M112.034 19.9843C113.666 19.9843 113.666 14.6467 115.299 14.6467V80.8696H1.03192V48.7688C2.80034 48.7688 2.66431 50.7322 4.29669 50.7322C5.92908 50.7322 5.92908 45.1564 7.56146 45.1564C9.19385 45.1564 8.92178 46.8721 10.8262 46.8721C12.7307 46.8721 12.1866 50.0841 14.091 50.0841C15.9954 50.0841 15.5873 48.8641 17.3558 48.8641C19.1242 48.8641 18.7841 43.05 20.6205 43.05C22.457 43.05 21.9809 44.9467 23.8853 44.9467C25.7897 44.9467 25.4497 47.5583 27.1501 47.5583C28.8505 47.5583 28.5784 38.8848 30.4148 38.8848C32.2513 38.8848 32.0472 41.8872 33.6796 41.8872C35.312 41.8872 35.0399 37.6839 36.9444 37.6839C38.8488 37.6839 38.4407 40.3717 40.2091 40.3717C41.9776 40.3717 41.7055 29.3821 43.4739 29.3821C45.2423 29.3821 44.9023 32.4417 46.7387 32.4417C48.5751 32.4417 48.099 34.4623 50.0035 34.4623C51.9079 34.4623 51.4318 29.2201 53.2682 29.2201C55.1047 29.2201 54.6285 31.7935 56.533 31.7935C58.4374 31.7935 58.0974 27.5521 59.7978 27.5521C61.4982 27.5521 61.2941 20.4608 63.0625 20.4608C64.8309 20.4608 64.5589 32.3273 66.3273 32.3273C68.0957 32.3273 67.8917 24.016 69.5921 24.016C71.2925 24.016 70.9524 27.657 72.8568 27.657C74.7613 27.657 74.3532 30.9262 76.1216 30.9262C77.89 30.9262 77.686 25.5124 79.3864 25.5124C81.0868 25.5124 80.9507 30.6593 82.6511 30.6593C84.3515 30.6593 84.1475 28.3718 85.9159 28.3718C87.6843 28.3718 87.4123 23.6538 89.1807 23.6538C90.9491 23.6538 90.677 25.541 92.4454 25.541C94.2139 25.541 94.0778 18.6499 95.7102 18.6499C97.3426 18.6499 97.0705 28.0954 98.975 28.0954C100.879 28.0954 100.403 21.6808 102.24 21.6808C104.076 21.6808 103.804 24.321 105.505 24.321C107.205 24.321 107.069 17.7444 108.769 17.7444C110.47 17.7444 110.402 19.9843 112.034 19.9843Z" fill="url(#paint0_linear_26_897)"/>
<path id="Vector_2" d="M115.299 14.6467C113.666 14.6467 113.666 19.9843 112.034 19.9843C110.402 19.9843 110.47 17.7444 108.769 17.7444C107.069 17.7444 107.205 24.321 105.505 24.321C103.804 24.321 104.076 21.6808 102.24 21.6808C100.403 21.6808 100.879 28.0954 98.975 28.0954C97.0705 28.0954 97.3426 18.6499 95.7102 18.6499C94.0778 18.6499 94.2139 25.541 92.4454 25.541C90.677 25.541 90.9491 23.6538 89.1807 23.6538C87.4123 23.6538 87.6843 28.3718 85.9159 28.3718C84.1475 28.3718 84.3515 30.6593 82.6511 30.6593C80.9507 30.6593 81.0868 25.5124 79.3864 25.5124C77.686 25.5124 77.89 30.9262 76.1216 30.9262C74.3532 30.9262 74.7613 27.657 72.8568 27.657C70.9524 27.657 71.2925 24.016 69.5921 24.016C67.8917 24.016 68.0957 32.3273 66.3273 32.3273C64.5589 32.3273 64.8309 20.4608 63.0625 20.4608C61.2941 20.4608 61.4982 27.5521 59.7978 27.5521C58.0974 27.5521 58.4374 31.7935 56.533 31.7935C54.6285 31.7935 55.1047 29.2201 53.2682 29.2201C51.4318 29.2201 51.9079 34.4623 50.0035 34.4623C48.099 34.4623 48.5751 32.4417 46.7387 32.4417C44.9023 32.4417 45.2423 29.3821 43.4739 29.3821C41.7055 29.3821 41.9776 40.3717 40.2091 40.3717C38.4407 40.3717 38.8488 37.6839 36.9444 37.6839C35.0399 37.6839 35.312 41.8872 33.6796 41.8872C32.0472 41.8872 32.2513 38.8848 30.4148 38.8848C28.5784 38.8848 28.8505 47.5583 27.1501 47.5583C25.4497 47.5583 25.7898 44.9467 23.8853 44.9467C21.9809 44.9467 22.457 43.05 20.6205 43.05C18.7841 43.05 19.1242 48.8641 17.3558 48.8641C15.5873 48.8641 15.9954 50.0841 14.091 50.0841C12.1866 50.0841 12.7307 46.8721 10.8262 46.8721C8.92178 46.8721 9.19385 45.1564 7.56146 45.1564C5.92908 45.1564 5.92908 50.7322 4.29669 50.7322C2.66431 50.7322 2.80034 48.7688 1.03192 48.7688" stroke="#5D5D5D" stroke-width="0.989324" stroke-linecap="round" stroke-linejoin="round"/>
</g>
</g>
<defs>
<linearGradient id="paint0_linear_26_897" x1="58.1654" y1="14.6467" x2="58.1654" y2="80.8696" gradientUnits="userSpaceOnUse">
<stop stop-color="#5A5A5A"/>
<stop offset="1" stop-color="#635BFF" stop-opacity="0"/>
</linearGradient>
</defs>
</svg>
