<svg width="17" height="17" viewBox="0 0 17 17" fill="none" xmlns="http://www.w3.org/2000/svg">
<g id="Tool" clip-path="url(#clip0_26_908)">
<path id="Icon" d="M10.6844 4.41464C10.5635 4.53792 10.4959 4.70368 10.4959 4.87632C10.4959 5.04896 10.5635 5.21472 10.6844 5.338L11.7397 6.39328C11.863 6.51413 12.0287 6.58182 12.2014 6.58182C12.374 6.58182 12.5398 6.51413 12.663 6.39328L15.1495 3.90678C15.4812 4.63967 15.5816 5.45622 15.4374 6.24762C15.2932 7.03902 14.9113 7.76768 14.3424 8.3365C13.7736 8.90532 13.045 9.28727 12.2536 9.43147C11.4622 9.57566 10.6456 9.47525 9.91272 9.1436L5.35524 13.7011C5.09285 13.9635 4.73698 14.1109 4.36591 14.1109C3.99484 14.1109 3.63897 13.9635 3.37659 13.7011C3.1142 13.4387 2.9668 13.0828 2.9668 12.7118C2.9668 12.3407 3.1142 11.9848 3.37659 11.7224L7.93407 7.16496C7.60243 6.43207 7.50201 5.61552 7.64621 4.82412C7.7904 4.03272 8.17236 3.30406 8.74118 2.73524C9.31 2.16642 10.0387 1.78446 10.8301 1.64027C11.6215 1.49607 12.438 1.59649 13.1709 1.92813L10.6844 4.41464Z" stroke="#8B8B8B" stroke-width="1.48399" stroke-linecap="round" stroke-linejoin="round"/>
</g>
<defs>
<clipPath id="clip0_26_908">
<rect width="15.8292" height="15.8292" fill="white" transform="translate(0.989258 0.259766)"/>
</clipPath>
</defs>
</svg>
