<svg width="574" height="113" viewBox="0 0 574 113" fill="none" xmlns="http://www.w3.org/2000/svg"><path d="M155.5 50.53c-10.87 0-15.68-8.97-15.68-20.03s4.85-20.02 15.67-20.02 15.62 9.08 15.62 20.02-4.8 20.03-15.62 20.03Zm0-36.9c-8 0-10.87 8.76-10.87 16.79s2.63 16.6 10.86 16.6c8.24 0 10.78-8.69 10.78-16.6 0-7.91-2.78-16.8-10.78-16.8Z" fill="#003C57"/><path d="M184.56 22.3v27.54h-4.4V22.31h-4.49v-2.7h4.49v-4.37c0-5.49 3.22-9.48 9.64-9.48.45 0 1.05.04 1.05.04v2.78h-.52c-3.07 0-5.77 1.98-5.77 6.1v4.92h6.3v2.67h-6.3v.04Z" fill="#003C57"/><path d="M202.69 22.3v27.54h-4.4V22.31h-4.49v-2.7h4.48v-4.37c0-5.49 3.23-9.48 9.65-9.48.45 0 1.05.04 1.05.04v2.78h-.52c-3.07 0-5.78 1.98-5.78 6.1v4.92h6.3v2.67h-6.3v.04Z" fill="#003C57"/><path d="M216.2 13.79a2.7 2.7 0 0 1-2.77-2.63v-.04a2.8 2.8 0 0 1 5.56 0c0 1.54-1.25 2.7-2.74 2.7h-.04v-.03Zm-2.2 36V19.57h4.43V49.8H214Z" fill="#003C57"/><path d="M237.32 50.53c-7.18 0-12.67-6.18-12.67-15.87s5.53-15.79 12.83-15.79c3.68 0 6.1.98 7.4 2.06l-1.14 2.7a8.76 8.76 0 0 0-5.25-1.61c-6.13 0-9.28 5.33-9.28 12.52 0 7.18 3.6 12.67 9.12 12.67 1.9 0 3.8-.56 5.37-1.65l1.2 2.94c-1.36 1.02-3.95 2.02-7.58 2.02Z" fill="#003C57"/><path d="M252.02 36.52c.56 7.1 4.48 10.7 10.62 10.7 2.82.04 5.65-.57 8.2-1.86l1.29 3.07a21.17 21.17 0 0 1-9.81 2.06c-8.52 0-14.54-5.05-14.54-15.95 0-10.9 5.57-15.79 13.16-15.79 7.6 0 12.4 4.73 12.4 14.82l-21.32 2.95Zm8.76-14.82c-4.93 0-9.04 3.8-8.96 12.27l17.16-2.34c0-7.02-3.35-9.93-8.2-9.93Z" fill="#003C57"/><path d="M301.4 22.3v27.54H297V22.31h-4.49v-2.7H297v-4.37c0-5.49 3.27-9.48 9.65-9.48.45 0 .97.04.97.04v2.78h-.52c-3.03 0-5.78 1.98-5.78 6.1v4.92h6.3v2.67h-6.22v.04Z" fill="#003C57"/><path d="M323.72 50.53c-8.88 0-13-6.9-13-15.79 0-8.88 4.08-15.87 13-15.87s12.96 6.9 12.96 15.87c0 8.96-4.04 15.79-12.96 15.79Zm0-28.7c-6.62 0-8.52 6.65-8.52 12.91s2.06 12.6 8.52 12.6c6.46 0 8.52-6.38 8.52-12.6s-1.94-12.92-8.52-12.92Z" fill="#003C57"/><path d="M355.7 22.39c-2.79-.73-6.91-.6-8.77.56v26.9h-4.44V20.93c3.19-1.34 6.42-2.06 12.07-2.06.77 0 1.82 0 2.26.04l-1.13 3.47Z" fill="#003C57"/><path d="m165.42 110.96-17.12-26.4a34.6 34.6 0 0 1-2.22-3.95H146s.16 2.22.16 4.6v25.75h-5.6v-38.6h6.33l16.27 24.84a29.7 29.7 0 0 1 2.27 3.95h.07s-.2-2.18-.2-4.48V72.41h5.62V111h-5.5v-.05Z" fill="#003C57"/><path d="M189.4 111.77c-8.88 0-13.03-3.55-13.03-9.33 0-8.11 8.51-10.33 18.6-11.22v-1.74c0-4.16-2.82-5.37-6.94-5.37a21.9 21.9 0 0 0-8.2 1.74l-1.49-3.72a28.66 28.66 0 0 1 10.86-2.17c6.7 0 11.83 2.74 11.83 10.5v19.13c-2.5 1.29-6.58 2.17-11.62 2.17v.01Zm5.61-17.52c-7.47.8-12.47 2.18-12.47 8.04 0 4.07 2.9 5.81 7.43 5.81 1.74.04 3.47-.28 5.04-.97V94.25Z" fill="#003C57"/><path d="M218.63 111.65c-6.34 0-8.76-4.08-8.76-8.2V84.72h-4.24v-3.95h4.24v-6.79l6.46-1.77v8.6h5.93v3.95h-5.97v18.45c-.2 2.14 1.37 4 3.51 4.2h.6c.61 0 1.18-.12 1.79-.28v3.95c-1.13.37-2.35.61-3.56.57Z" fill="#003C57"/><path d="M230.5 75.52a3.4 3.4 0 1 1 3.8-3.4 3.62 3.62 0 0 1-3.8 3.4Zm-3.27 35.44V80.73h6.5v30.23h-6.5Z" fill="#003C57"/><path d="M253.15 111.77c-9.24 0-13.81-6.86-13.81-15.87 0-9 4.6-15.94 13.8-15.94 9.22 0 13.78 6.9 13.78 15.94 0 9-4.56 15.87-13.77 15.87Zm0-27.61c-5.57 0-7.23 5.81-7.23 11.74 0 5.94 1.74 11.5 7.23 11.5s7.22-5.6 7.22-11.5c-.04-5.93-1.65-11.78-7.22-11.74Z" fill="#003C57"/><path d="M290.9 110.96V89.4c0-3.87-3.31-5.32-7.03-5.32-1.78-.04-3.55.28-5.2.88V111h-6.47V82.14a31.4 31.4 0 0 1 12.04-2.18c7.9 0 13.16 2.7 13.16 9.29v21.72h-6.5Z" fill="#003C57"/><path d="M315.56 111.77c-8.88 0-13.03-3.55-13.03-9.33 0-8.11 8.51-10.33 18.6-11.22v-1.74c0-4.16-2.82-5.37-6.94-5.37a21.9 21.9 0 0 0-8.2 1.74l-1.49-3.72a28.66 28.66 0 0 1 10.86-2.17c6.7 0 11.83 2.74 11.83 10.5v19.13c-2.54 1.29-6.61 2.17-11.62 2.17v.01Zm5.58-17.52c-7.47.8-12.48 2.18-12.48 8.04 0 4.07 2.9 5.81 7.43 5.81a11.9 11.9 0 0 0 5.05-.97V94.25Z" fill="#003C57"/><path d="M333.9 110.96v-44h6.45V111h-6.46v-.04Z" fill="#003C57"/><path d="M371.03 111.77c-3.63.12-7.22-.65-10.53-2.18l1.81-4.72a15.97 15.97 0 0 0 7.43 1.86c4.48 0 7.67-2.63 7.67-6.46 0-8.48-16.02-5.2-16.02-17.24 0-6.14 4.92-11.42 12.83-11.42a19.1 19.1 0 0 1 9.3 2.17l-1.67 4.2a14.11 14.11 0 0 0-6.74-1.77c-4.2 0-6.9 2.54-6.9 6.14 0 8.31 16.39 4.72 16.39 17.47-.08 6.83-5.7 11.96-13.57 11.96v-.01Z" fill="#003C57"/><path d="M400.91 111.65c-6.34 0-8.76-4.08-8.76-8.2V84.72h-4.24v-3.95h4.24v-6.79l6.46-1.77v8.6h5.93v3.95h-5.93v18.45c-.2 2.14 1.37 4 3.51 4.2h.6c.61 0 1.18-.12 1.78-.28v3.95c-1.17.37-2.38.61-3.59.57Z" fill="#003C57"/><path d="M421.01 111.77c-8.88 0-13.04-3.55-13.04-9.33 0-8.11 8.52-10.33 18.61-11.22v-1.74c0-4.16-2.82-5.37-6.94-5.37a21.9 21.9 0 0 0-8.2 1.74l-1.49-3.72a28.66 28.66 0 0 1 10.86-2.17c6.7 0 11.83 2.74 11.83 10.5v19.13c-2.54 1.29-6.62 2.17-11.62 2.17v.01Zm5.57-17.52c-7.46.8-12.47 2.18-12.47 8.04 0 4.07 2.86 5.81 7.43 5.81 1.73.04 3.47-.28 5.04-.97V94.25Z" fill="#003C57"/><path d="M450.16 111.65c-6.34 0-8.76-4.08-8.76-8.2V84.72h-4.24v-3.95h4.24v-6.79l6.46-1.77v8.6h5.93v3.95h-5.93v18.45a3.92 3.92 0 0 0 3.55 4.2h.57c.6 0 1.17-.08 1.74-.28v3.95c-1.14.41-2.35.61-3.56.57Z" fill="#003C57"/><path d="M462.07 75.52a3.4 3.4 0 0 1 .76-6.75 3.4 3.4 0 0 1 3 3.35 3.54 3.54 0 0 1-3.76 3.4Zm-3.23 35.44V80.73h6.5v30.23h-6.5Z" fill="#003C57"/><path d="M479.43 111.77a18.8 18.8 0 0 1-9.12-2.18l1.7-4.16a12.27 12.27 0 0 0 6.62 1.78c3.3 0 5.93-2.14 5.93-4.72 0-7.19-13.24-3.84-13.24-13.69 0-4.48 4.03-8.88 10.57-8.88 3-.08 5.94.69 8.52 2.18l-1.7 3.75a10.3 10.3 0 0 0-5.53-1.73c-3.35 0-5.4 1.98-5.4 4.32 0 6.74 13.52 3.75 13.52 13.8-.08 4.93-4.6 9.54-11.87 9.54v-.01Z" fill="#003C57"/><path d="M507.65 111.65c-6.34 0-8.76-4.08-8.76-8.2V84.72h-4.24v-3.95h4.24v-6.79l6.46-1.77v8.6h5.93v3.95h-5.93v18.45c-.2 2.14 1.37 4 3.51 4.2h.6c.61 0 1.18-.12 1.79-.28v3.95c-1.18.37-2.39.61-3.6.57Z" fill="#003C57"/><path d="M519.52 75.52a3.4 3.4 0 0 1 .77-6.74 3.4 3.4 0 0 1 2.99 3.34 3.56 3.56 0 0 1-3.76 3.4Zm-3.23 35.44V80.73h6.5v30.23h-6.5Z" fill="#003C57"/><path d="M541.44 111.77c-7.43 0-13.12-6.05-13.12-15.95 0-9.89 5.81-15.86 13.16-15.86 2.75-.12 5.5.64 7.75 2.17l-1.45 3.64a7.99 7.99 0 0 0-4.76-1.45c-5.25 0-8 4.52-8 11.34 0 6.83 3.15 11.47 7.91 11.47 1.7 0 3.35-.53 4.76-1.53l1.62 3.95c-1.37 1.17-4.03 2.22-7.87 2.22Z" fill="#003C57"/><path d="M561.3 111.77c-3.19.04-6.3-.73-9.12-2.18l1.7-4.16a12.27 12.27 0 0 0 6.62 1.78c3.3 0 5.93-2.14 5.93-4.72 0-7.19-13.24-3.84-13.24-13.69 0-4.48 4-8.88 10.58-8.88 2.99-.08 5.93.69 8.51 2.18l-1.7 3.75a10.3 10.3 0 0 0-5.53-1.73c-3.35 0-5.4 1.98-5.4 4.32 0 6.74 13.52 3.75 13.52 13.8-.08 4.93-4.68 9.54-11.87 9.54v-.01Z" fill="#003C57"/><path d="M.9 68.37c1.7-3.51 3.48-6.94 5.41-10.25A108.58 108.58 0 0 1 .95 41.56C.9 50.76.9 60.66.9 68.37ZM11.37.55S.91.55.91 13.5v6.9A122 122 0 0 0 8.5 54.52a110.05 110.05 0 0 1 21.4-24.95C46.8 15.04 69.62 5.03 100.55.6L11.37.55h-.01Z" fill="#A8BD3A"/><path d="M112.25 7.61c-35.36 3.4-59.54 13.49-76.87 28.3A103.96 103.96 0 0 0 12.7 63.85c13.57 26.36 39.49 45.74 82.64 48.6h4.2s13.29.45 13.29-14.32V7.53c-.2.04-.4.08-.57.08ZM21.3 82.75a91.24 91.24 0 0 1-10.54-15.39A165.66 165.66 0 0 0 .91 90.42v22h70.73c-22.05-5.25-38.6-15.87-50.35-29.68Z" fill="#003C57"/></svg>
