<svg width="115" height="37" viewBox="0 0 115 37" fill="none" xmlns="http://www.w3.org/2000/svg"><rect width="115" height="37" fill="#0F718C"/><path d="M99.73 12.04h2.32l-5.62 6.14 7 6.82h-2.54l-6.62-6.4V25h-1.85V12.04h1.85v5.93l5.46-5.93Z" fill="white"/><path d="M87.96 12.04h1.87v7.36c0 1-.07 1.74-.22 2.25a3.98 3.98 0 0 1-1.32 2.17 5.95 5.95 0 0 1-4.03 1.33 6.01 6.01 0 0 1-4.06-1.32c-.3-.27-.57-.57-.79-.9a5.05 5.05 0 0 1-.53-1.25 9.37 9.37 0 0 1-.2-2.3v-7.34h1.86v7.36c0 1.21.14 2.06.42 2.54a3 3 0 0 0 1.27 1.15c.57.28 1.24.43 2.01.43 1.1 0 2-.3 2.7-.87.36-.3.62-.67.78-1.1.16-.41.24-1.13.24-2.15v-7.36Z" fill="white"/><path d="M75.41 22.93c.32 0 .59.1.81.33.22.21.33.48.33.8 0 .3-.1.56-.33.77-.22.21-.49.32-.8.32a1.1 1.1 0 0 1-.8-1.9c.21-.21.48-.32.8-.32Z" fill="white"/><path d="M65.27 12.04h7.35v1.65h-5.5v3.95h5.31v1.66h-5.3v4.03h5.67v1.65h-7.53V12.04Z" fill="white"/><path d="M62.99 22v2.04a9.69 9.69 0 0 1-4.71 1.1c-1.45 0-2.68-.28-3.69-.86a6.52 6.52 0 0 1-3.27-5.71c0-1.9.67-3.48 2.01-4.77a6.94 6.94 0 0 1 4.98-1.93c1.37 0 2.88.36 4.54 1.07v2c-1.51-.87-3-1.3-4.44-1.3-1.49 0-2.72.47-3.7 1.4a4.66 4.66 0 0 0-1.47 3.52c0 1.42.48 2.6 1.45 3.5.96.92 2.2 1.38 3.7 1.38a8.4 8.4 0 0 0 4.6-1.45Z" fill="white"/><path d="M47.09 12.04h1.85V25H47.1V12.04Z" fill="white"/><path d="M37.76 12.04h1.85v11.27h5.84V25h-7.7V12.04Z" fill="white"/><path d="M28.48 11.85c2 0 3.67.64 5 1.9a6.3 6.3 0 0 1 2 4.77c0 1.92-.67 3.5-2.02 4.75a7.17 7.17 0 0 1-5.08 1.88 6.8 6.8 0 0 1-4.9-1.88 6.28 6.28 0 0 1-1.94-4.7 6.4 6.4 0 0 1 1.97-4.81 6.86 6.86 0 0 1 4.97-1.9Zm.07 1.77c-1.48 0-2.7.46-3.66 1.39a4.75 4.75 0 0 0-1.43 3.55c0 1.4.48 2.56 1.44 3.49.96.93 2.16 1.4 3.6 1.4s2.65-.48 3.62-1.43a4.73 4.73 0 0 0 1.45-3.53 4.9 4.9 0 0 0-5.02-4.87Z" fill="white"/><path d="M12.33 25V12.02h4.1c1.24 0 2.23.34 2.97 1 .73.67 1.1 1.57 1.1 2.7a3.6 3.6 0 0 1-.57 2c-.37.58-.89 1-1.55 1.27-.65.26-1.6.39-2.82.39H14.2V25h-1.86Zm3.78-11.33H14.2v4.06h2.03c.76 0 1.34-.18 1.75-.53.4-.36.61-.87.61-1.53 0-1.33-.82-2-2.47-2Z" fill="white"/></svg>
